<svg width="25" height="25" viewBox="0 0 25 25" fill="none" xmlns="http://www.w3.org/2000/svg">
<path d="M11.2185 3.49506C11.0203 3.49506 10.8302 3.41631 10.69 3.27613C10.5498 3.13594 10.471 2.94581 10.471 2.74756C10.471 2.54931 10.5498 2.35918 10.69 2.219C10.8302 2.07882 11.0203 2.00006 11.2185 2.00006V3.49506ZM1.99934 11.2193C1.99934 11.021 2.0781 10.8309 2.21828 10.6907C2.35847 10.5505 2.5486 10.4718 2.74685 10.4718C2.9451 10.4718 3.13523 10.5505 3.27541 10.6907C3.41559 10.8309 3.49435 11.021 3.49435 11.2193H1.99934ZM10.9873 22.4517L10.4471 21.5388L11.7328 20.7773L12.274 21.6903L10.9873 22.4517ZM14.98 21.5388L14.4398 22.4517L13.1541 21.6903L13.6933 20.7773L14.98 21.5388ZM12.274 21.6903C12.3206 21.7648 12.3854 21.8263 12.4623 21.8689C12.5392 21.9115 12.6256 21.9339 12.7135 21.9339C12.8015 21.9339 12.8879 21.9115 12.9648 21.8689C13.0417 21.8263 13.1065 21.7648 13.1531 21.6903L14.4398 22.4517C13.6693 23.7544 11.7587 23.7544 10.9873 22.4517L12.273 21.6903H12.274ZM14.2085 3.49506H11.2185V2.00006H14.2085V3.49506ZM3.49435 11.2193V12.2159H1.99934V11.2193H3.49435ZM21.9327 12.2159V11.2193H23.4277V12.2159H21.9327ZM23.4277 12.2159C23.4277 13.3671 23.4277 14.2671 23.3779 14.9936C23.3281 15.7262 23.2254 16.3362 22.9912 16.9003L21.6098 16.3282C21.7563 15.9774 21.842 15.5488 21.8869 14.892C21.9327 14.2282 21.9327 13.387 21.9327 12.2159H23.4277ZM16.8966 18.9355C18.1484 18.9135 18.8042 18.8338 19.3185 18.6205L19.8896 20.0019C19.0872 20.3348 18.1743 20.4095 16.9225 20.4315L16.8966 18.9355ZM22.9912 16.9003C22.7032 17.5956 22.281 18.2274 21.7489 18.7596C21.2167 19.2918 20.5849 19.7139 19.8896 20.0019L19.3185 18.6205C20.3563 18.1906 21.1799 17.366 21.6098 16.3282L22.9912 16.9003ZM3.49435 12.2159C3.49435 13.387 3.49435 14.2282 3.54019 14.892C3.58504 15.5488 3.67076 15.9774 3.81627 16.3282L2.43588 16.9003C2.20167 16.3362 2.09901 15.7262 2.04818 14.9936C1.99835 14.2671 1.99934 13.3671 1.99934 12.2159H3.49435ZM8.5046 20.4295C7.25279 20.4085 6.33984 20.3348 5.53752 20.0019L6.10961 18.6205C6.62289 18.8338 7.2787 18.9135 8.52952 18.9355L8.5046 20.4305V20.4295ZM3.81627 16.3282C4.24618 17.366 5.07076 18.1906 6.10861 18.6205L5.53752 20.0019C4.84219 19.7139 4.21039 19.2918 3.67821 18.7596C3.14603 18.2274 2.72389 17.5956 2.43588 16.9003L3.81627 16.3282ZM14.2085 2.00006C15.8251 2.00006 17.0899 2.00006 18.0995 2.09474C19.1191 2.19242 19.9553 2.39375 20.6909 2.84424L19.9105 4.11998C19.448 3.83593 18.869 3.67048 17.957 3.58377C17.0361 3.49606 15.854 3.49506 14.2085 3.49506V2.00006ZM21.9327 11.2193C21.9327 9.57375 21.9327 8.3917 21.844 7.46978C21.7573 6.55883 21.5919 5.97976 21.3088 5.51731L22.5836 4.73691C23.0341 5.47246 23.2354 6.30866 23.3331 7.32826C23.4277 8.33888 23.4277 9.60265 23.4277 11.2193H21.9327ZM20.6909 2.84424C21.4623 3.31689 22.1109 3.96547 22.5836 4.73691L21.3078 5.51731C20.9588 4.94751 20.48 4.46836 19.9105 4.11898L20.6909 2.84424ZM13.6943 20.7773C13.8956 20.4355 14.073 20.1335 14.2464 19.8963C14.4248 19.6362 14.6565 19.417 14.9261 19.2534L15.6776 20.5461C15.6308 20.574 15.566 20.6238 15.4544 20.7773C15.3338 20.9428 15.1972 21.172 14.98 21.5388L13.6943 20.7773ZM16.9225 20.4295C16.4839 20.4374 16.2079 20.4434 15.9966 20.4663C15.7992 20.4883 15.7225 20.5202 15.6776 20.5461L14.9261 19.2534C15.2052 19.0988 15.5141 19.0057 15.8321 18.9803C16.1291 18.9474 16.4859 18.9424 16.8966 18.9355L16.9225 20.4315V20.4295ZM10.4471 21.5388C10.2298 21.173 10.0933 20.9428 9.9727 20.7773C9.86107 20.6238 9.79629 20.574 9.74944 20.5461L10.5009 19.2534C10.79 19.4228 10.9993 19.6471 11.1807 19.8963C11.3531 20.1335 11.5315 20.4345 11.7338 20.7773L10.4471 21.5388ZM8.52952 18.9355C8.94015 18.9424 9.29795 18.9474 9.59496 18.9803C9.90493 19.0152 10.2089 19.084 10.5009 19.2534L9.74944 20.5461C9.70459 20.5202 9.62785 20.4883 9.43051 20.4663C9.21922 20.4434 8.94214 20.4364 8.50361 20.4295L8.52952 18.9345V18.9355Z" fill="#555555"/>
<path d="M14.2092 3.49506C14.4074 3.49506 14.5976 3.41631 14.7378 3.27613C14.8779 3.13594 14.9567 2.94581 14.9567 2.74756C14.9567 2.54931 14.8779 2.35918 14.7378 2.219C14.5976 2.07882 14.4074 2.00006 14.2092 2.00006V3.49506ZM23.4284 11.2193C23.4284 11.021 23.3496 10.8309 23.2095 10.6907C23.0693 10.5505 22.8791 10.4718 22.6809 10.4718C22.4826 10.4718 22.2925 10.5505 22.1523 10.6907C22.0121 10.8309 21.9334 11.021 21.9334 11.2193H23.4284ZM14.4404 22.4517L14.9806 21.5388L13.6949 20.7773L13.1537 21.6903L14.4404 22.4517ZM10.4478 21.5388L10.988 22.4517L12.2737 21.6903L11.7345 20.7773L10.4478 21.5388ZM13.1537 21.6903C13.1071 21.7648 13.0424 21.8263 12.9655 21.8689C12.8886 21.9115 12.8021 21.9339 12.7142 21.9339C12.6263 21.9339 12.5398 21.9115 12.4629 21.8689C12.386 21.8263 12.3212 21.7648 12.2747 21.6903L10.988 22.4517C11.7584 23.7544 13.669 23.7544 14.4404 22.4517L13.1547 21.6903H13.1537ZM11.2192 3.49506H14.2092V2.00006H11.2192V3.49506ZM21.9334 11.2193V12.2159H23.4284V11.2193H21.9334ZM3.495 12.2159V11.2193H2V12.2159H3.495ZM2 12.2159C2 13.3671 2 14.2671 2.04983 14.9936C2.09967 15.7262 2.20232 16.3362 2.43654 16.9003L3.81792 16.3282C3.67141 15.9774 3.5857 15.5488 3.54085 14.892C3.495 14.2282 3.495 13.387 3.495 12.2159H2ZM8.53117 18.9355C7.27936 18.9135 6.62355 18.8338 6.10927 18.6205L5.53818 20.0019C6.3405 20.3348 7.25344 20.4095 8.50526 20.4315L8.53117 18.9355ZM2.43654 16.9003C2.72454 17.5956 3.14669 18.2274 3.67887 18.7596C4.21105 19.2918 4.84284 19.7139 5.53818 20.0019L6.10927 18.6205C5.07141 18.1906 4.24784 17.366 3.81792 16.3282L2.43654 16.9003ZM21.9334 12.2159C21.9334 13.387 21.9334 14.2282 21.8875 14.892C21.8427 15.5488 21.757 15.9774 21.6115 16.3282L22.9918 16.9003C23.2261 16.3362 23.3287 15.7262 23.3796 14.9936C23.4294 14.2671 23.4284 13.3671 23.4284 12.2159H21.9334ZM16.9231 20.4295C18.1749 20.4085 19.0879 20.3348 19.8902 20.0019L19.3181 18.6205C18.8048 18.8338 18.149 18.9135 16.8982 18.9355L16.9231 20.4305V20.4295ZM21.6115 16.3282C21.1816 17.366 20.357 18.1906 19.3191 18.6205L19.8902 20.0019C20.5855 19.7139 21.2173 19.2918 21.7495 18.7596C22.2817 18.2274 22.7038 17.5956 22.9918 16.9003L21.6115 16.3282ZM11.2192 2.00006C9.60259 2.00006 8.33782 2.00006 7.32819 2.09474C6.3086 2.19242 5.4724 2.39375 4.73685 2.84424L5.51725 4.11998C5.9797 3.83593 6.55877 3.67048 7.47072 3.58377C8.39164 3.49606 9.57369 3.49506 11.2192 3.49506V2.00006ZM3.495 11.2193C3.495 9.57375 3.495 8.3917 3.58371 7.46978C3.67042 6.55883 3.83586 5.97976 4.11892 5.51731L2.84418 4.73691C2.39368 5.47246 2.19236 6.30866 2.09468 7.32826C2 8.33888 2 9.60265 2 11.2193H3.495ZM4.73685 2.84424C3.96541 3.31689 3.31683 3.96547 2.84418 4.73691L4.11992 5.51731C4.46889 4.94751 4.9477 4.46836 5.51725 4.11898L4.73685 2.84424ZM11.7335 20.7773C11.5321 20.4355 11.3547 20.1335 11.1813 19.8963C11.0029 19.6362 10.7712 19.417 10.5016 19.2534L9.7501 20.5461C9.79694 20.574 9.86173 20.6238 9.97335 20.7773C10.094 20.9428 10.2305 21.172 10.4478 21.5388L11.7335 20.7773ZM8.50526 20.4295C8.9438 20.4374 9.21987 20.4434 9.43117 20.4663C9.62851 20.4883 9.70525 20.5202 9.7501 20.5461L10.5016 19.2534C10.2225 19.0988 9.91363 19.0057 9.59562 18.9803C9.29861 18.9474 8.9418 18.9424 8.53117 18.9355L8.50526 20.4315V20.4295ZM14.9806 21.5388C15.1979 21.173 15.3344 20.9428 15.455 20.7773C15.5667 20.6238 15.6314 20.574 15.6783 20.5461L14.9268 19.2534C14.6378 19.4228 14.4285 19.6471 14.2471 19.8963C14.0746 20.1335 13.8962 20.4345 13.6939 20.7773L14.9806 21.5388ZM16.8982 18.9355C16.4876 18.9424 16.1298 18.9474 15.8328 18.9803C15.5228 19.0152 15.2188 19.084 14.9268 19.2534L15.6783 20.5461C15.7231 20.5202 15.7999 20.4883 15.9972 20.4663C16.2085 20.4434 16.4856 20.4364 16.9241 20.4295L16.8982 18.9345V18.9355Z" fill="#555555"/>
</svg>
