<svg width="24" height="24" viewBox="0 0 24 24" fill="none" xmlns="http://www.w3.org/2000/svg">
<path d="M13.5464 5.0465C13.6852 5.0465 13.8183 4.99137 13.9164 4.89324C14.0145 4.79511 14.0697 4.66202 14.0697 4.52325C14.0697 4.38448 14.0145 4.25138 13.9164 4.15326C13.8183 4.05513 13.6852 4 13.5464 4V5.0465ZM19.9998 10.4534C19.9998 10.3146 19.9447 10.1815 19.8466 10.0834C19.7484 9.98529 19.6154 9.93016 19.4766 9.93016C19.3378 9.93016 19.2047 9.98529 19.1066 10.0834C19.0085 10.1815 18.9533 10.3146 18.9533 10.4534H19.9998ZM13.7083 18.3161L14.0864 17.677L13.1864 17.144L12.8076 17.7831L13.7083 18.3161ZM10.9134 17.677L11.2916 18.3161L12.1915 17.7831L11.8141 17.144L10.9134 17.677ZM12.8076 17.7831C12.775 17.8353 12.7296 17.8783 12.6758 17.9082C12.622 17.938 12.5615 17.9537 12.4999 17.9537C12.4384 17.9537 12.3778 17.938 12.324 17.9082C12.2702 17.8783 12.2249 17.8353 12.1922 17.7831L11.2916 18.3161C11.8309 19.228 13.1683 19.228 13.7083 18.3161L12.8083 17.7831H12.8076ZM11.4534 5.0465H13.5464V4H11.4534V5.0465ZM18.9533 10.4534V11.1511H19.9998V10.4534H18.9533ZM6.0465 11.1511V10.4534H5V11.1511H6.0465ZM5 11.1511C5 11.9569 5 12.5869 5.03488 13.0955C5.06977 13.6083 5.14163 14.0352 5.30558 14.4301L6.27254 14.0297C6.16999 13.7841 6.10999 13.4841 6.07859 13.0243C6.0465 12.5597 6.0465 11.9708 6.0465 11.1511H5ZM9.57181 15.8547C8.69554 15.8394 8.23647 15.7836 7.87648 15.6343L7.47672 16.6012C8.03834 16.8343 8.6774 16.8866 9.55367 16.9019L9.57181 15.8547ZM5.30558 14.4301C5.50718 14.9168 5.80268 15.3591 6.1752 15.7316C6.54773 16.1041 6.98998 16.3996 7.47672 16.6012L7.87648 15.6343C7.14998 15.3333 6.57348 14.7561 6.27254 14.0297L5.30558 14.4301ZM18.9533 11.1511C18.9533 11.9708 18.9533 12.5597 18.9212 13.0243C18.8898 13.4841 18.8298 13.7841 18.728 14.0297L19.6942 14.4301C19.8582 14.0352 19.9301 13.6083 19.9656 13.0955C20.0005 12.5869 19.9998 11.9569 19.9998 11.1511H18.9533ZM15.4462 16.9005C16.3224 16.8859 16.9615 16.8343 17.5231 16.6012L17.1227 15.6343C16.7634 15.7836 16.3043 15.8394 15.4287 15.8547L15.4462 16.9012V16.9005ZM18.728 14.0297C18.427 14.7561 17.8498 15.3333 17.1233 15.6343L17.5231 16.6012C18.0098 16.3996 18.4521 16.1041 18.8246 15.7316C19.1971 15.3591 19.4926 14.9168 19.6942 14.4301L18.728 14.0297ZM11.4534 4C10.3218 4 9.43646 4 8.72972 4.06628C8.01601 4.13465 7.43067 4.27558 6.91579 4.59092L7.46206 5.48394C7.78578 5.2851 8.19113 5.16929 8.82949 5.10859C9.47413 5.0472 10.3016 5.0465 11.4534 5.0465V4ZM6.0465 10.4534C6.0465 9.30157 6.0465 8.47413 6.10859 7.82879C6.16929 7.19113 6.2851 6.78578 6.48324 6.46206L5.59092 5.91579C5.27558 6.43067 5.13465 7.01601 5.06628 7.72972C5 8.43716 5 9.3218 5 10.4534H6.0465ZM6.91579 4.59092C6.37578 4.92178 5.92178 5.37578 5.59092 5.91579L6.48394 6.46206C6.72822 6.06321 7.06338 5.7278 7.46206 5.48324L6.91579 4.59092ZM11.8134 17.144C11.6725 16.9047 11.5483 16.6933 11.4269 16.5273C11.302 16.3452 11.1398 16.1918 10.9511 16.0773L10.4251 16.9822C10.4578 17.0017 10.5032 17.0366 10.5813 17.144C10.6657 17.2598 10.7613 17.4203 10.9134 17.677L11.8134 17.144ZM9.55367 16.9005C9.86064 16.9061 10.0539 16.9103 10.2018 16.9264C10.3399 16.9417 10.3937 16.964 10.4251 16.9822L10.9511 16.0773C10.7558 15.9691 10.5395 15.9039 10.3169 15.8861C10.109 15.8631 9.85925 15.8596 9.57181 15.8547L9.55367 16.9019V16.9005ZM14.0864 17.677C14.2385 17.421 14.3341 17.2598 14.4185 17.144C14.4966 17.0366 14.542 17.0017 14.5748 16.9822L14.0487 16.0773C13.8464 16.1959 13.6999 16.3529 13.5729 16.5273C13.4522 16.6933 13.3273 16.904 13.1857 17.144L14.0864 17.677ZM15.4287 15.8547C15.1413 15.8596 14.8908 15.8631 14.6829 15.8861C14.4659 15.9106 14.2531 15.9587 14.0487 16.0773L14.5748 16.9822C14.6062 16.964 14.6599 16.9417 14.798 16.9264C14.9459 16.9103 15.1399 16.9054 15.4469 16.9005L15.4287 15.854V15.8547Z" fill="#555555"/>
<path d="M17.4004 9.6001C19.0572 9.6001 20.4004 8.25695 20.4004 6.6001C20.4004 4.94324 19.0572 3.6001 17.4004 3.6001C15.7435 3.6001 14.4004 4.94324 14.4004 6.6001C14.4004 8.25695 15.7435 9.6001 17.4004 9.6001Z" fill="#F6761A"/>
</svg>
