<svg width="28" height="28" viewBox="0 0 28 28" fill="none" xmlns="http://www.w3.org/2000/svg">
<path d="M15.7092 5.56635C15.9074 5.56635 16.0976 5.4876 16.2378 5.34742C16.3779 5.20723 16.4567 5.0171 16.4567 4.81885C16.4567 4.6206 16.3779 4.43047 16.2378 4.29029C16.0976 4.1501 15.9074 4.07135 15.7092 4.07135V5.56635ZM24.9284 13.2905C24.9284 13.0923 24.8496 12.9022 24.7095 12.762C24.5693 12.6218 24.3791 12.543 24.1809 12.543C23.9826 12.543 23.7925 12.6218 23.6523 12.762C23.5121 12.9022 23.4334 13.0923 23.4334 13.2905H24.9284ZM15.9404 24.523L16.4806 23.6101L15.1949 22.8486L14.6537 23.7615L15.9404 24.523ZM11.9478 23.6101L12.488 24.523L13.7737 23.7615L13.2345 22.8486L11.9478 23.6101ZM14.6537 23.7615C14.6071 23.8361 14.5424 23.8976 14.4655 23.9402C14.3886 23.9828 14.3021 24.0052 14.2142 24.0052C14.1263 24.0052 14.0398 23.9828 13.9629 23.9402C13.886 23.8976 13.8212 23.8361 13.7747 23.7615L12.488 24.523C13.2584 25.8257 15.169 25.8257 15.9404 24.523L14.6547 23.7615H14.6537ZM12.7192 5.56635H15.7092V4.07135H12.7192V5.56635ZM23.4334 13.2905V14.2872H24.9284V13.2905H23.4334ZM4.995 14.2872V13.2905H3.5V14.2872H4.995ZM3.5 14.2872C3.5 15.4384 3.5 16.3384 3.54983 17.0649C3.59967 17.7975 3.70232 18.4074 3.93654 18.9716L5.31792 18.3995C5.17141 18.0486 5.0857 17.6201 5.04085 16.9633C4.995 16.2995 4.995 15.4583 4.995 14.2872H3.5ZM10.0312 21.0068C8.77936 20.9848 8.12355 20.9051 7.60927 20.6918L7.03818 22.0732C7.8405 22.4061 8.75344 22.4808 10.0053 22.5028L10.0312 21.0068ZM3.93654 18.9716C4.22454 19.6669 4.64669 20.2987 5.17887 20.8309C5.71105 21.363 6.34284 21.7852 7.03818 22.0732L7.60927 20.6918C6.57141 20.2619 5.74784 19.4373 5.31792 18.3995L3.93654 18.9716ZM23.4334 14.2872C23.4334 15.4583 23.4334 16.2995 23.3875 16.9633C23.3427 17.6201 23.257 18.0486 23.1115 18.3995L24.4919 18.9716C24.7261 18.4074 24.8287 17.7975 24.8796 17.0649C24.9294 16.3384 24.9284 15.4384 24.9284 14.2872H23.4334ZM18.4231 22.5008C19.6749 22.4798 20.5879 22.4061 21.3902 22.0732L20.8181 20.6918C20.3048 20.9051 19.649 20.9848 18.3982 21.0068L18.4231 22.5018V22.5008ZM23.1115 18.3995C22.6816 19.4373 21.857 20.2619 20.8191 20.6918L21.3902 22.0732C22.0855 21.7852 22.7173 21.363 23.2495 20.8309C23.7817 20.2987 24.2038 19.6669 24.4919 18.9716L23.1115 18.3995ZM12.7192 4.07135C11.1026 4.07135 9.83782 4.07135 8.82819 4.16603C7.8086 4.26371 6.9724 4.46503 6.23685 4.91553L7.01725 6.19127C7.4797 5.90722 8.05877 5.74177 8.97072 5.65506C9.89164 5.56735 11.0737 5.56635 12.7192 5.56635V4.07135ZM4.995 13.2905C4.995 11.645 4.995 10.463 5.08371 9.54107C5.17042 8.63012 5.33586 8.05105 5.61892 7.5886L4.34418 6.8082C3.89368 7.54375 3.69236 8.37995 3.59468 9.39954C3.5 10.4102 3.5 11.6739 3.5 13.2905H4.995ZM6.23685 4.91553C5.46541 5.38818 4.81683 6.03676 4.34418 6.8082L5.61992 7.5886C5.96889 7.0188 6.4477 6.53965 7.01725 6.19027L6.23685 4.91553ZM13.2335 22.8486C13.0321 22.5067 12.8547 22.2048 12.6813 21.9675C12.5029 21.7074 12.2712 21.4883 12.0016 21.3247L11.2501 22.6174C11.2969 22.6453 11.3617 22.6951 11.4734 22.8486C11.594 23.014 11.7305 23.2433 11.9478 23.6101L13.2335 22.8486ZM10.0053 22.5008C10.4438 22.5087 10.7199 22.5147 10.9312 22.5376C11.1285 22.5596 11.2053 22.5915 11.2501 22.6174L12.0016 21.3247C11.7225 21.1701 11.4136 21.077 11.0956 21.0516C10.7986 21.0187 10.4418 21.0137 10.0312 21.0068L10.0053 22.5028V22.5008ZM16.4806 23.6101C16.6979 23.2443 16.8344 23.014 16.955 22.8486C17.0667 22.6951 17.1314 22.6453 17.1783 22.6174L16.4268 21.3247C16.1378 21.4941 15.9285 21.7184 15.7471 21.9675C15.5746 22.2048 15.3962 22.5057 15.1939 22.8486L16.4806 23.6101ZM18.3982 21.0068C17.9876 21.0137 17.6298 21.0187 17.3328 21.0516C17.0228 21.0865 16.7188 21.1553 16.4268 21.3247L17.1783 22.6174C17.2231 22.5915 17.2999 22.5596 17.4972 22.5376C17.7085 22.5147 17.9856 22.5077 18.4241 22.5008L18.3982 21.0058V21.0068Z" fill="#555555"/>
<path d="M22 13C25.3137 13 28 10.3137 28 7C28 3.68629 25.3137 1 22 1C18.6863 1 16 3.68629 16 7C16 10.3137 18.6863 13 22 13Z" fill="#FA5959"/>
</svg>