<svg width="16" height="16" viewBox="0 0 16 16" fill="none" xmlns="http://www.w3.org/2000/svg">
<path d="M9.13255 2.2002C9.13255 1.427 9.75935 0.800195 10.5325 0.800195H13.1992C13.9724 0.800195 14.5992 1.427 14.5992 2.2002V3.2002C14.5992 3.97339 13.9724 4.6002 13.1992 4.6002H10.5326C9.75935 4.6002 9.13255 3.97339 9.13255 3.2002V2.2002ZM10.5326 14.6002C9.75935 14.6002 9.13255 13.9734 9.13255 13.2002V8.86686C9.13255 8.09366 9.75935 7.46686 10.5325 7.46686H13.1992C13.9724 7.46686 14.5992 8.09366 14.5992 8.86686V13.2002C14.5992 13.9734 13.9724 14.6002 13.1992 14.6002H10.5326ZM2.19922 14.6002C1.42602 14.6002 0.799219 13.9734 0.799219 13.2002V12.2002C0.799219 11.427 1.42602 10.8002 2.19922 10.8002H4.86589C5.63908 10.8002 6.26589 11.427 6.26589 12.2002V13.2002C6.26589 13.9734 5.63908 14.6002 4.86589 14.6002H2.19922ZM2.19922 7.93353C1.42602 7.93353 0.799219 7.30673 0.799219 6.53353V2.2002C0.799219 1.427 1.42602 0.800195 2.19922 0.800195H4.86589C5.63908 0.800195 6.26589 1.427 6.26589 2.2002V6.53353C6.26589 7.30673 5.63908 7.93353 4.86589 7.93353H2.19922Z" stroke="#555555" stroke-width="1.2" stroke-linecap="round" stroke-linejoin="round"/>
</svg>
