<svg width="24" height="24" viewBox="0 0 24 24" fill="none" xmlns="http://www.w3.org/2000/svg">
<path d="M10.857 5.93888C11.2364 5.89609 11.618 5.87476 12 5.875C16.1976 5.875 19.56 8.41513 21 12C20.6514 12.872 20.1805 13.693 19.6005 14.4395M7.068 7.20413C5.232 8.2935 3.81 9.98138 3 12C4.44 15.5849 7.8024 18.125 12 18.125C13.7389 18.1339 15.4463 17.6735 16.932 16.795M10.092 10.145C9.84126 10.3888 9.64236 10.6782 9.50666 10.9967C9.37096 11.3152 9.30112 11.6566 9.30112 12.0013C9.30112 12.3461 9.37096 12.6874 9.50666 13.0059C9.64236 13.3245 9.84126 13.6139 10.092 13.8576C10.3427 14.1014 10.6404 14.2948 10.968 14.4267C11.2956 14.5586 11.6468 14.6265 12.0013 14.6265C12.3559 14.6265 12.7071 14.5586 13.0347 14.4267C13.3623 14.2948 13.66 14.1014 13.9107 13.8576" stroke="#8C8C8C" stroke-width="1.4" stroke-linecap="round" stroke-linejoin="round"/>
<path d="M4.80005 5L19.2 19" stroke="#8C8C8C" stroke-width="1.4" stroke-linecap="round"/>
</svg>
