<svg width="720" height="800" viewBox="0 0 720 800" fill="none" xmlns="http://www.w3.org/2000/svg">
<g clip-path="url(#clip0_9321_10665)">
<rect x="0.000976562" width="720" height="800" fill="#EEF5FF"/>
<rect width="1068.49" height="145.253" transform="matrix(0.754516 -0.656281 -0.656281 -0.754516 -10.2471 506.383)" fill="url(#paint0_linear_9321_10665)"/>
<rect width="1068.49" height="145.253" transform="matrix(0.686752 0.726892 0.726892 -0.686752 -74.0234 63.7305)" fill="url(#paint1_linear_9321_10665)"/>
<path d="M75.001 304.343V383.383C75.001 385.906 77.7425 387.474 79.9156 386.195L83.3488 384.176L203.517 313.61V241.089C203.517 236.679 201.434 232.996 198.365 230.655C194.374 227.603 188.689 226.844 183.73 229.767L84.2337 288.205C78.5154 291.565 75.001 297.707 75.001 304.343Z" fill="#EA7A00"/>
<path d="M76.5044 386.124L89.3888 396.138L98.7111 391.644L79.3271 380.933L76.5044 386.124Z" fill="#EA7A00"/>
<path d="M83.3516 308.914V384.176L203.52 313.61V241.089C203.492 235.133 197.018 231.448 191.882 234.464L92.5899 292.775C86.866 296.138 83.3516 302.277 83.3516 308.914Z" fill="#FF9D33"/>
<path d="M89.966 323.254L129.308 300.21C133.797 297.581 137.09 293.313 138.493 288.303L139.252 285.592C140.784 280.123 144.41 275.48 149.342 272.666L195.785 246.18C203.554 241.75 213.209 247.359 213.209 256.304V258.39V263.445V324.531C213.209 330.712 209.93 336.43 204.598 339.552L106.233 397.127C96.0987 403.058 83.3516 395.75 83.3516 384.008V334.794C83.3516 330.048 85.8691 325.654 89.966 323.254Z" fill="#5A9DF6"/>
<path d="M97.1852 325.581L135.388 303.212C139.773 300.644 143.024 296.506 144.48 291.636L145.077 289.639C146.667 284.321 150.243 279.821 155.063 277.071L203.063 249.701C207.586 247.121 213.209 250.387 213.209 255.595V259.485V263.445V324.811C213.209 330.818 210.022 336.374 204.839 339.41L106.446 396.996C99.4143 401.112 90.5708 396.041 90.5708 387.892V337.122C90.5708 332.372 93.0883 327.981 97.1852 325.581Z" fill="#2A85FF"/>
<path d="M637.693 496.431L602.468 517.05L601.644 517.531L542.288 552.281L541.473 552.763L490.062 582.858C485.231 585.689 479.244 585.714 474.383 582.925L418.964 551.15L418.124 550.668L369.958 523.054C365.169 520.315 359.291 520.298 354.478 523.012L349.031 526.084L348.491 526.392L303.699 551.715L303.581 551.782L302.856 552.191L250.837 581.595C246.015 584.317 240.112 584.292 235.315 581.528L184.435 552.149L183.603 551.676L123.024 516.694L122.192 516.212L89.0415 497.078C78.599 491.049 78.6074 475.985 89.0583 469.973L124.799 449.396H124.807L125.631 448.915L183.805 415.422L184.628 414.949L243.777 380.9L244.601 380.427H244.609L304.458 345.968L305.29 345.484L355.287 316.696C360.109 313.924 366.038 313.916 370.86 316.68L421.207 345.501L422.047 345.985L482.876 380.819H482.885L483.716 381.292L542.266 414.809L543.106 415.291L599.107 447.349L599.947 447.831L637.562 469.365C647.993 475.33 648.069 490.36 637.693 496.431Z" fill="#E1ECFC"/>
<g opacity="0.3">
<path d="M303.914 551.841L303.687 551.973L303.58 551.782L302.855 552.191L243.942 518.172L243.115 517.699L182.527 482.717L181.695 482.233L124.804 449.39L125.627 448.909L182.527 481.76L183.359 482.241L243.95 517.223L244.773 517.699L303.463 551.581L303.695 551.715L303.914 551.841Z" fill="#908ABC"/>
</g>
<g opacity="0.3">
<path d="M373.105 523.762L372.688 524.476L362.329 518.497L361.486 518.016L303.189 484.347L302.357 483.874L241.774 448.892L240.943 448.408L183.802 415.417L184.625 414.941L241.774 447.934L242.609 448.416L303.189 483.398H303.197L304.021 483.874L362.321 517.531L363.161 518.024L373.105 523.762Z" fill="#908ABC"/>
</g>
<g opacity="0.3">
<path d="M542.29 552.281L541.475 552.766L479.153 516.784L478.321 516.3L422.553 484.107L421.721 483.625L363.412 449.965L362.589 449.483H362.58L302.001 414.51L301.166 414.025L243.776 380.892L244.602 380.416H244.608L302.001 413.552L302.832 414.034L363.421 449.007L364.247 449.492L422.553 483.149L423.384 483.634L479.153 515.826L479.985 516.308L542.29 552.281Z" fill="#908ABC"/>
</g>
<g opacity="0.3">
<path d="M602.467 517.049L601.643 517.531L540.089 482L539.249 481.515L483.488 449.323L482.657 448.841H482.648L424.348 415.172L423.516 414.699L362.936 379.717L362.096 379.233L304.454 345.959L305.286 345.475L362.936 378.759L363.777 379.241L424.356 414.215L425.191 414.699L483.488 448.356L484.329 448.841L540.089 481.034L540.929 481.515L602.467 517.049Z" fill="#908ABC"/>
</g>
<g opacity="0.3">
<path d="M422.043 345.977L363.776 379.243L362.936 379.719L302.83 414.034L301.998 414.51L242.608 448.417L241.774 448.893L183.359 482.242L182.527 482.718L123.02 516.692L122.188 516.207L181.695 482.234L182.527 481.76L240.942 448.408L241.774 447.935L301.164 414.026L301.998 413.552L362.096 379.234L362.936 378.761L421.2 345.493L422.043 345.977Z" fill="#908ABC"/>
</g>
<g opacity="0.3">
<path d="M483.713 381.282L425.192 414.699L424.349 415.172L364.245 449.49L363.41 449.964L304.021 483.873L303.189 484.346L244.774 517.698L243.942 518.172L184.435 552.148L183.603 551.672L243.116 517.698L243.95 517.222L302.357 483.873L303.189 483.397H303.197L362.579 449.482H362.587L363.419 449.006L423.517 414.699L424.357 414.214L482.873 380.806H482.881L483.713 381.282Z" fill="#908ABC"/>
</g>
<g opacity="0.3">
<path d="M543.103 415.283L484.329 448.842L483.489 449.324L423.382 483.634L422.551 484.107L363.161 518.025L362.329 518.498L349.031 526.084L348.49 526.392L303.914 551.842L303.687 551.973L303.581 551.783L303.463 551.581L303.273 551.251L361.486 518.016L362.321 517.532L421.719 483.625L422.551 483.149L482.649 448.842H482.657L483.489 448.358L542.263 414.801L543.103 415.283Z" fill="#908ABC"/>
</g>
<g opacity="0.3">
<path d="M599.945 447.826L540.93 481.517L540.09 482.002L479.983 516.309L479.152 516.785L418.961 551.15L418.121 550.666L478.32 516.3L479.152 515.827L539.25 481.517L540.09 481.035L599.104 447.344L599.945 447.826Z" fill="#908ABC"/>
</g>
<path d="M589.975 354.337V497.426C589.975 501.993 585.013 504.833 581.075 502.517L574.859 498.86L357.314 371.111V239.825C357.314 231.841 361.086 225.176 366.642 220.937C373.864 215.412 384.155 214.037 393.133 219.329L573.254 325.123C583.613 331.206 589.975 342.323 589.975 354.337Z" fill="#5A9DF6"/>
<path d="M587.251 502.391L563.929 520.517L547.052 512.38L582.14 492.987L587.251 502.391Z" fill="#63A1FC"/>
<path d="M574.859 362.612V498.863L357.314 371.114V239.825C357.364 229.041 369.084 222.371 378.381 227.831L558.135 333.396C568.494 339.481 574.859 350.598 574.859 362.612Z" fill="#2A85FF"/>
<path d="M562.884 388.574L491.663 346.857C483.537 342.097 477.575 334.368 475.035 325.3L473.66 320.394C470.888 310.495 464.324 302.088 455.393 296.994L371.313 249.044C357.25 241.024 339.767 251.178 339.767 267.369V271.147V280.296V390.887C339.767 402.077 345.701 412.427 355.359 418.078L533.436 522.31C551.784 533.049 574.859 519.818 574.859 498.56V409.467C574.859 400.87 570.3 392.92 562.884 388.574Z" fill="#5A9DF6"/>
<path d="M549.81 392.785L480.65 352.29C472.708 347.638 466.827 340.15 464.192 331.332L463.111 327.717C460.235 318.089 453.758 309.943 445.032 304.967L358.135 255.415C349.946 250.746 339.767 256.658 339.767 266.084V273.127V280.293V391.391C339.767 402.267 345.536 412.326 354.923 417.818L533.047 522.069C545.777 529.521 561.79 520.338 561.79 505.589V413.679C561.787 405.082 557.228 397.129 549.81 392.785Z" fill="#2A85FF"/>
<path d="M212.522 480.12L318.818 419.722L320.14 340.94L213.847 401.335L212.522 480.12Z" fill="#D1CFE2"/>
<path d="M213.847 401.334L168.756 373.98L167.409 454.104L212.522 480.119L213.847 401.334Z" fill="#B2B1C9"/>
<path d="M271.114 406.781L272.234 427.994L267.734 430.517L258.053 435.941L259.865 411.967C257.812 411.914 255.939 411.278 254.524 409.945C250.537 406.185 251.632 398.545 256.969 392.883C257.591 392.228 258.238 391.626 258.91 391.077C264.012 386.935 270.332 386.117 273.858 389.441C277.848 393.202 276.753 400.842 271.413 406.501C271.321 406.605 271.212 406.68 271.114 406.781Z" fill="#B2B1C9"/>
<path opacity="0.63" d="M266.62 409.461L267.737 430.516L258.056 435.941L259.868 411.967C257.815 411.914 255.942 411.278 254.528 409.945C250.54 406.184 251.635 398.545 256.972 392.883C257.594 392.227 258.241 391.625 258.913 391.076C262.848 389.486 266.83 389.735 269.364 392.124C273.354 395.882 272.26 403.521 266.922 409.183C266.827 409.287 266.718 409.363 266.62 409.461Z" fill="#A2A2BA"/>
<path d="M320.139 340.939L276.261 313.152L168.755 373.981L213.846 401.334L320.139 340.939Z" fill="#ECEAF6"/>
<path d="M192.965 370.816L208.812 380.318L217.942 359.231L203.651 348.526L192.965 370.816Z" fill="#EA7A00"/>
<path d="M192.965 370.816L210.669 361.415L211.117 334.778C219.781 322.935 217.815 312.736 228.092 307.43L244.155 299.138C247.633 297.343 250.59 298.746 251.696 299.435C252.805 300.124 255.376 302.146 255.312 306.063L254.76 338.911L272.464 329.511L272.853 306.357C273.004 297.41 268.555 289.25 260.952 284.529C253.349 279.81 244.063 279.44 236.11 283.549L220.047 291.84C204.023 300.113 193.881 316.45 193.578 334.481L192.965 370.816Z" fill="#EA7A00"/>
<path d="M254.76 338.918L270.607 348.419L278.512 326.742L270.593 303.474L255.311 306.07L254.76 338.918Z" fill="#EA7A00"/>
<path d="M280.425 296.77C280.425 296.77 268.983 286.983 256.919 282.508L250.685 288.29L272.937 301.362L280.425 296.77Z" fill="#EA7A00"/>
<path d="M208.812 380.319L226.515 370.918L226.963 344.281C227.157 332.718 233.662 322.239 243.939 316.933L260.002 308.641C263.48 306.846 266.437 308.249 267.543 308.938C268.652 309.627 271.223 311.649 271.158 315.566L270.607 348.414L288.31 339.013L288.7 315.86C288.851 306.913 284.401 298.753 276.798 294.032C269.195 289.313 259.909 288.943 251.956 293.051L235.894 301.343C219.87 309.615 209.727 325.955 209.425 343.984L208.812 380.319Z" fill="#FF9D33"/>
<path d="M316.141 303.582L320.826 301.815L307.253 265.458L302.414 267.208L316.141 303.582Z" fill="#CD9F1F"/>
<path d="M321.455 301.619C327.148 299.501 328.728 289.626 324.984 279.562C321.24 269.498 313.589 263.058 307.895 265.176C302.202 267.294 300.622 277.17 304.366 287.233C308.11 297.297 315.761 303.738 321.455 301.619Z" fill="#CD9F1F"/>
<path d="M315.858 303.701C321.551 301.583 323.131 291.707 319.387 281.644C315.643 271.58 307.992 265.139 302.298 267.258C296.605 269.376 295.025 279.251 298.769 289.315C302.513 299.379 310.164 305.82 315.858 303.701Z" fill="#F6BC1B"/>
<path d="M317.026 287.486L315.508 283.767C315.152 282.893 314.153 282.473 313.279 282.829L308.039 284.965L305.782 279.435C305.27 278.18 303.836 277.575 302.582 278.088C301.327 278.6 300.722 280.034 301.235 281.288L303.492 286.819L305.754 292.369C306.057 293.109 306.9 293.462 307.636 293.162L316.085 289.715C316.964 289.359 317.384 288.359 317.026 287.486Z" fill="white"/>
<path d="M314.87 258.929L319.58 257.235L306.583 220.671L301.716 222.345L314.87 258.929Z" fill="#EA7A00"/>
<path d="M320.225 257.042C325.951 255.014 327.687 245.164 324.101 235.043C320.516 224.921 312.967 218.36 307.241 220.389C301.515 222.417 299.779 232.267 303.365 242.388C306.95 252.51 314.499 259.071 320.225 257.042Z" fill="#EA7A00"/>
<path d="M314.593 259.037C320.32 257.008 322.055 247.159 318.47 237.037C314.884 226.916 307.336 220.355 301.61 222.383C295.883 224.412 294.148 234.261 297.733 244.383C301.319 254.505 308.867 261.065 314.593 259.037Z" fill="#FF9D33"/>
<path d="M316.009 242.85L314.55 239.109C314.209 238.229 313.215 237.792 312.335 238.137L307.065 240.19L304.898 234.622C304.405 233.36 302.982 232.732 301.716 233.225C300.454 233.718 299.826 235.141 300.319 236.406L302.487 241.973L304.662 247.557C304.951 248.299 305.788 248.669 306.533 248.378L315.035 245.065C315.917 244.721 316.351 243.729 316.009 242.85Z" fill="white"/>
<path d="M622.741 440.756L627.426 438.989L613.855 402.632L609.014 404.382L622.741 440.756Z" fill="#CD9F1F"/>
<path d="M628.047 438.801C633.741 436.683 635.321 426.808 631.576 416.744C627.832 406.68 620.181 400.239 614.488 402.358C608.794 404.476 607.214 414.352 610.958 424.415C614.703 434.479 622.354 440.92 628.047 438.801Z" fill="#CD9F1F"/>
<path d="M622.446 440.885C628.14 438.766 629.72 428.891 625.976 418.827C622.231 408.764 614.581 402.323 608.887 404.441C603.194 406.56 601.613 416.435 605.358 426.499C609.102 436.562 616.753 443.003 622.446 440.885Z" fill="#F6BC1B"/>
<path d="M623.629 424.659L622.111 420.941C621.755 420.067 620.756 419.647 619.882 420.002L614.642 422.139L612.385 416.608C611.873 415.354 610.439 414.749 609.185 415.261C607.93 415.774 607.325 417.208 607.838 418.462L610.095 423.993L612.357 429.543C612.66 430.283 613.503 430.635 614.239 430.336L622.688 426.889C623.564 426.533 623.984 425.533 623.629 424.659Z" fill="white"/>
<path d="M621.468 396.1L626.178 394.405L613.181 357.841L608.314 359.516L621.468 396.1Z" fill="#EA7A00"/>
<path d="M626.821 394.211C632.547 392.183 634.283 382.333 630.697 372.211C627.112 362.09 619.563 355.529 613.837 357.557C608.111 359.586 606.375 369.435 609.961 379.557C613.546 389.679 621.095 396.239 626.821 394.211Z" fill="#EA7A00"/>
<path d="M621.19 396.206C626.916 394.177 628.651 384.328 625.066 374.206C621.481 364.084 613.932 357.524 608.206 359.552C602.479 361.58 600.744 371.43 604.329 381.552C607.915 391.673 615.463 398.234 621.19 396.206Z" fill="#FF9D33"/>
<path d="M622.608 380.02L621.149 376.279C620.808 375.4 619.813 374.963 618.934 375.307L613.664 377.36L611.496 371.793C611.004 370.53 609.581 369.903 608.318 370.396C607.055 370.888 606.428 372.311 606.921 373.577L609.088 379.144L611.264 384.728C611.552 385.47 612.39 385.839 613.135 385.548L621.636 382.235C622.516 381.891 622.95 380.9 622.608 380.02Z" fill="white"/>
</g>
<defs>
<linearGradient id="paint0_linear_9321_10665" x1="141.491" y1="51.0591" x2="727.102" y2="56.8634" gradientUnits="userSpaceOnUse">
<stop stop-color="#DBEAFF" stop-opacity="0.42"/>
<stop offset="1" stop-color="#D9D9D9" stop-opacity="0"/>
</linearGradient>
<linearGradient id="paint1_linear_9321_10665" x1="-117.994" y1="33.1232" x2="727.102" y2="56.8635" gradientUnits="userSpaceOnUse">
<stop stop-color="#DBEAFF" stop-opacity="0.42"/>
<stop offset="1" stop-color="#D9D9D9" stop-opacity="0"/>
</linearGradient>
<clipPath id="clip0_9321_10665">
<rect width="720" height="800" fill="white"/>
</clipPath>
</defs>
</svg>
